<svg width="189" height="140" viewBox="0 0 189 140" fill="none" xmlns="http://www.w3.org/2000/svg">
<path fill-rule="evenodd" clip-rule="evenodd" d="M11.1489 35.7774C10.9598 36.4155 11.324 37.0861 11.9623 37.2751C12.6007 37.4642 13.2713 37.1001 13.4603 36.462C13.6493 35.8238 13.2853 35.1528 12.647 34.9637C12.0086 34.7746 11.3379 35.1392 11.1489 35.7774Z" fill="white"/>
<path fill-rule="evenodd" clip-rule="evenodd" d="M19.9844 0.52146C19.8991 0.809349 20.0634 1.11184 20.3514 1.19713C20.6393 1.28241 20.9418 1.11818 21.0271 0.830294C21.1124 0.542405 20.9481 0.239703 20.6602 0.154417C20.3722 0.0691319 20.0697 0.233571 19.9844 0.52146Z" fill="white"/>
<path fill-rule="evenodd" clip-rule="evenodd" d="M3.98299 21.7613C3.83768 22.2519 4.11766 22.7674 4.60837 22.9128C5.09908 23.0581 5.61464 22.7783 5.75995 22.2876C5.90526 21.797 5.62539 21.2812 5.13468 21.1358C4.64397 20.9905 4.12831 21.2707 3.98299 21.7613Z" fill="white"/>
<path fill-rule="evenodd" clip-rule="evenodd" d="M16.7908 56.1042C16.7056 56.3921 16.8699 56.6946 17.1578 56.7799C17.4458 56.8652 17.7483 56.7009 17.8336 56.4131C17.9188 56.1252 17.7546 55.8225 17.4666 55.7372C17.1787 55.6519 16.8761 55.8163 16.7908 56.1042Z" fill="white"/>
<path fill-rule="evenodd" clip-rule="evenodd" d="M2.26678 52.6142L3.17839 52.28C3.3719 52.2085 3.58997 52.2371 3.75902 52.3559L4.55499 52.9149C4.98335 53.2139 5.56859 52.8971 5.54645 52.3793L5.50403 51.4129C5.49598 51.2066 5.58923 51.0103 5.75443 50.887L6.53117 50.3079C6.94861 49.9974 6.82461 49.3459 6.32193 49.2044L5.38502 48.9417C5.18565 48.8858 5.0258 48.736 4.95816 48.5406L4.64245 47.6243C4.47295 47.1336 3.81064 47.0462 3.52302 47.4786L2.98523 48.2816C2.87047 48.4536 2.67811 48.5572 2.47115 48.5593L1.49834 48.5722C0.977129 48.5795 0.691575 49.1773 1.01547 49.5848L1.62098 50.3452C1.74966 50.5069 1.78957 50.7204 1.72894 50.918L1.44475 51.8415C1.29162 52.337 1.77755 52.7936 2.26678 52.6142Z" fill="white"/>
<path fill-rule="evenodd" clip-rule="evenodd" d="M11.8673 16.7711L12.5461 16.5223C12.6902 16.469 12.8526 16.4904 12.9785 16.5788L13.5711 16.995C13.8901 17.2177 14.3259 16.9818 14.3094 16.5962L14.2778 15.8766C14.2718 15.723 14.3412 15.5768 14.4642 15.4851L15.0426 15.0539C15.3534 14.8227 15.2611 14.3376 14.8868 14.2322L14.1892 14.0366C14.0407 13.995 13.9217 13.8834 13.8713 13.7379L13.6363 13.0556C13.51 12.6902 13.0169 12.6252 12.8027 12.9472L12.4023 13.5451C12.3168 13.6732 12.1736 13.7503 12.0195 13.7518L11.2951 13.7615C10.9071 13.7669 10.6944 14.212 10.9356 14.5154L11.3865 15.0816C11.4823 15.202 11.512 15.361 11.4669 15.5081L11.2553 16.1958C11.1412 16.5647 11.5031 16.9047 11.8673 16.7711Z" fill="white"/>
<path fill-rule="evenodd" clip-rule="evenodd" d="M163.743 62.4486C163.554 63.0867 163.918 63.7573 164.557 63.9463C165.195 64.1354 165.866 63.7713 166.055 63.1332C166.244 62.495 165.88 61.824 165.241 61.6349C164.603 61.4459 163.932 61.8104 163.743 62.4486Z" fill="white"/>
<path fill-rule="evenodd" clip-rule="evenodd" d="M163.847 75.4524C163.761 75.7403 163.926 76.0428 164.214 76.1281C164.502 76.2134 164.804 76.0492 164.889 75.7613C164.975 75.4734 164.81 75.1707 164.523 75.0854C164.235 75.0001 163.932 75.1645 163.847 75.4524Z" fill="white"/>
<path fill-rule="evenodd" clip-rule="evenodd" d="M172.363 49.9026C172.278 50.1905 172.442 50.4929 172.73 50.5782C173.018 50.6635 173.321 50.4993 173.406 50.2114C173.491 49.9235 173.327 49.6208 173.039 49.5355C172.751 49.4502 172.448 49.6147 172.363 49.9026Z" fill="white"/>
<path fill-rule="evenodd" clip-rule="evenodd" d="M158.155 26.4674C158.069 26.7553 158.234 27.0578 158.522 27.1431C158.81 27.2283 159.112 27.0641 159.197 26.7762C159.283 26.4883 159.118 26.1856 158.83 26.1003C158.542 26.0151 158.24 26.1795 158.155 26.4674Z" fill="white"/>
<path fill-rule="evenodd" clip-rule="evenodd" d="M157.597 10.2696C157.512 10.5575 157.676 10.86 157.964 10.9453C158.252 11.0306 158.555 10.8664 158.64 10.5785C158.725 10.2906 158.561 9.98787 158.273 9.90259C157.985 9.8173 157.682 9.98174 157.597 10.2696Z" fill="white"/>
<path fill-rule="evenodd" clip-rule="evenodd" d="M162.308 19.3111C162.119 19.9493 162.484 20.6198 163.122 20.8089C163.76 20.998 164.431 20.6339 164.62 19.9957C164.809 19.3575 164.445 18.6865 163.807 18.4975C163.168 18.3084 162.497 18.6729 162.308 19.3111Z" fill="white"/>
<path fill-rule="evenodd" clip-rule="evenodd" d="M158.394 47.4867L159.622 47.0365C159.882 46.9401 160.176 46.9787 160.404 47.1386L161.476 47.8916C162.053 48.2945 162.841 47.8677 162.812 47.1702L162.754 45.8683C162.744 45.5905 162.869 45.326 163.092 45.16L164.138 44.3799C164.7 43.9616 164.533 43.084 163.856 42.8934L162.594 42.5395C162.325 42.4642 162.11 42.2624 162.019 41.9992L161.594 40.7648C161.365 40.1038 160.473 39.9861 160.086 40.5686L159.361 41.6503C159.207 41.882 158.948 42.0215 158.669 42.0244L157.358 42.0418C156.656 42.0515 156.272 42.8568 156.708 43.4058L157.524 44.43C157.697 44.6479 157.751 44.9356 157.669 45.2017L157.286 46.4458C157.08 47.1132 157.735 47.7283 158.394 47.4867Z" fill="white"/>
<path fill-rule="evenodd" clip-rule="evenodd" d="M141.989 11.1458L142.667 10.897C142.812 10.8437 142.974 10.865 143.1 10.9535L143.692 11.3697C144.011 11.5924 144.447 11.3565 144.431 10.9709L144.399 10.2513C144.393 10.0977 144.463 9.95154 144.586 9.85976L145.164 9.42857C145.475 9.19736 145.382 8.71225 145.008 8.60689L144.311 8.41128C144.162 8.36967 144.043 8.25812 143.993 8.11264L143.758 7.43029C143.631 7.06492 143.138 6.99987 142.924 7.32185L142.524 7.91978C142.438 8.04785 142.295 8.12498 142.141 8.12653L141.417 8.13616C141.028 8.14155 140.816 8.58668 141.057 8.89014L141.508 9.45628C141.604 9.57668 141.633 9.73572 141.588 9.8828L141.377 10.5705C141.263 10.9394 141.624 11.2794 141.989 11.1458Z" fill="white"/>
<path d="M28.8089 13.9587L29.3513 14.5012L29.9173 13.9352" stroke="white" stroke-width="0.855404"/>
<path opacity="0.12" d="M96.0922 132.595C146.191 132.595 186.804 131.401 186.804 129.928C186.804 128.455 146.191 127.261 96.0922 127.261C45.9935 127.261 5.38052 128.455 5.38052 129.928C5.38052 131.401 45.9935 132.595 96.0922 132.595Z" fill="black"/>
<path d="M123.177 77.5361H115.801V130.077H123.177V77.5361Z" fill="#FFE46B" stroke="black" stroke-width="0.855404" stroke-miterlimit="10"/>
<path d="M37.9816 77.5361H30.6052V130.077H37.9816V77.5361Z" fill="#FFE46B" stroke="black" stroke-width="0.855404" stroke-miterlimit="10"/>
<path d="M135.856 73.7493H21.3552V81.3228H135.856V73.7493Z" fill="#FFE46B" stroke="black" stroke-width="0.855404" stroke-miterlimit="10"/>
<path opacity="0.12" d="M116.028 140C134.152 140 148.843 138.75 148.843 137.207C148.843 135.665 134.152 134.414 116.028 134.414C97.9052 134.414 83.2135 135.665 83.2135 137.207C83.2135 138.75 97.9052 140 116.028 140Z" fill="black"/>
<path opacity="0.12" d="M44.7073 140C57.0655 140 67.0837 138.75 67.0837 137.207C67.0837 135.665 57.0655 134.414 44.7073 134.414C32.3492 134.414 22.3309 135.665 22.3309 137.207C22.3309 138.75 32.3492 140 44.7073 140Z" fill="black"/>
<path d="M36.0921 59.9483H104.667C105.887 59.9483 106.869 58.9679 106.869 57.7498V12.8877C106.869 11.6696 105.887 10.6892 104.667 10.6892H36.0921C34.8724 10.6892 33.8906 11.6696 33.8906 12.8877V57.7498C33.9203 58.9679 34.9021 59.9483 36.0921 59.9483Z" fill="#00CEF0"/>
<path d="M57.3255 72.108H82.9705L77.6452 47.8053H62.6508L57.3255 72.108Z" fill="#ECEEEE" stroke="black" stroke-width="0.855404" stroke-miterlimit="10" stroke-linecap="round" stroke-linejoin="round"/>
<mask id="mask0_33_562" style="mask-type:alpha" maskUnits="userSpaceOnUse" x="32" y="9" width="75" height="51">
<path d="M35.5993 58.9943H104.175C105.394 58.9943 106.376 58.0139 106.376 56.7958V11.9338C106.376 10.7157 105.394 9.73523 104.175 9.73523H35.5993C34.3795 9.73523 33.3977 10.7157 33.3977 11.9338V56.7958C33.4275 58.0139 34.4092 58.9943 35.5993 58.9943Z" fill="#00CEF0" stroke="black" stroke-width="0.855404" stroke-miterlimit="10" stroke-linecap="round"/>
</mask>
<g mask="url(#mask0_33_562)">
<path d="M83.4308 73.6667L74.9519 53.3748C73.9999 51.0871 75.1006 48.4429 77.3914 47.5219C79.6822 46.5712 82.3301 47.6705 83.2523 49.9581L91.7313 70.25" fill="#FF97B5"/>
<path d="M88.7267 79.5495C86.9714 79.5495 85.2757 78.5096 84.5616 76.7567L74.9522 53.3453C74.0002 51.0576 75.1009 48.4135 77.3917 47.4924C79.6825 46.5417 82.3304 47.641 83.2526 49.9287L92.8621 73.3401C93.8141 75.6278 92.7133 78.2719 90.4225 79.193C89.887 79.4603 89.292 79.5495 88.7267 79.5495Z" stroke="black" stroke-width="0.855404" stroke-miterlimit="10"/>
<path d="M55.376 73.6669L63.8549 53.375C64.8069 51.0874 63.7062 48.4432 61.4154 47.5222C59.1246 46.5715 56.4767 47.6707 55.5545 49.9584L47.0755 70.2503" fill="#FF97B5"/>
<path d="M50.0803 79.5495C51.8356 79.5495 53.5313 78.5096 54.2454 76.7567L63.8548 53.3453C64.8068 51.0576 63.7061 48.4135 61.4153 47.4924C59.1245 46.5417 56.4767 47.641 55.5544 49.9287L45.9449 73.3401C44.9929 75.6278 46.0937 78.2719 48.3845 79.193C48.92 79.4603 49.515 79.5495 50.0803 79.5495Z" stroke="black" stroke-width="0.855404" stroke-miterlimit="10"/>
<path d="M85.2753 87.7494H53.8289L55.2569 52.5729C55.2569 49.3048 57.9047 46.6606 61.1773 46.6606H77.9269C81.1995 46.6606 83.8473 49.3048 83.8473 52.5729L85.2753 87.7494Z" fill="#FF97B5" stroke="black" stroke-width="0.855404" stroke-miterlimit="10" stroke-linejoin="round"/>
<path d="M73.5536 62.4662L69.7455 66.9227L65.8184 62.496L62.0104 46.8388H77.4807L73.5536 62.4662Z" fill="white" stroke="black" stroke-width="0.855404" stroke-miterlimit="10"/>
<path d="M62.0698 46.8388L58.0535 52.7511L61.6236 53.2562L59.8981 57.059L69.7455 67.0416L62.0698 46.8388Z" fill="#303030" stroke="black" stroke-width="0.855404" stroke-miterlimit="10" stroke-linecap="round" stroke-linejoin="round"/>
<path d="M69.686 53.1077C67.3357 53.1077 65.4019 51.2062 65.4019 48.8294V39.3222C65.4019 36.9752 67.3059 35.044 69.686 35.044C72.0363 35.044 73.9701 36.9454 73.9701 39.3222V48.8294C73.9403 51.2062 72.0363 53.1077 69.686 53.1077Z" fill="#A55D21" stroke="black" stroke-width="0.855404" stroke-miterlimit="10"/>
<path d="M84.9185 42.7388C84.9185 42.7388 83.6987 42.412 84.9185 33.2019C86.1383 23.9918 77.8676 18.3172 77.8676 18.3172H60.523C60.523 18.3172 52.2523 24.0215 53.4721 33.2019C54.6919 42.3823 53.4721 42.7388 53.4721 42.7388H84.9185Z" fill="#563822" stroke="black" stroke-width="0.855404" stroke-miterlimit="10" stroke-linecap="round" stroke-linejoin="round"/>
<path d="M58.1131 38.2229L56.6553 38.2526C55.0785 38.2823 53.7992 37.0048 53.7695 35.4302C53.7397 33.8556 55.019 32.578 56.5958 32.5483L58.0536 32.5186" fill="#A55D21"/>
<path d="M58.1131 38.2229L56.6553 38.2526C55.0785 38.2823 53.7992 37.0048 53.7695 35.4302C53.7397 33.8556 55.019 32.578 56.5958 32.5483L58.0536 32.5186" stroke="black" stroke-width="0.855404" stroke-miterlimit="10"/>
<path d="M80.9022 38.2229L82.36 38.2526C83.9367 38.2823 85.216 37.0048 85.2458 35.4302C85.2755 33.8556 83.9962 32.578 82.4194 32.5483L80.9617 32.5186" fill="#A55D21"/>
<path d="M80.9022 38.2229L82.36 38.2526C83.9367 38.2823 85.216 37.0048 85.2458 35.4302C85.2755 33.8556 83.9962 32.578 82.4194 32.5483L80.9617 32.5186" stroke="black" stroke-width="0.855404" stroke-miterlimit="10"/>
<path d="M79.2063 42.9765L75.5767 47.0468C74.1487 48.6214 72.1554 49.5424 70.0134 49.5721C68.0498 49.6019 66.1458 48.8591 64.7177 47.4925L60.2551 43.2736C58.9461 42.0258 58.1131 40.3621 57.9346 38.5795L57.0421 29.9042C56.9528 23.0709 62.4269 17.4854 69.2696 17.3963C76.1122 17.3071 81.7054 22.7738 81.7946 29.6071L81.0806 38.5795C80.9616 40.1838 80.2773 41.7584 79.2063 42.9765Z" fill="#A55D21" stroke="black" stroke-width="0.855404" stroke-miterlimit="10"/>
<path d="M63.7956 39.7975C63.7956 40.5403 63.2303 41.1345 62.4866 41.1345C61.7428 41.1345 61.1478 40.57 61.1478 39.8272C61.1478 39.0845 61.713 38.4903 62.4568 38.4903C63.2006 38.4903 63.7956 39.0548 63.7956 39.7975Z" fill="#8C4A18"/>
<path d="M66.5768 35.2392C66.5768 36.1601 65.876 36.8969 64.9538 36.8969C64.0316 36.8969 63.2939 36.197 63.2939 35.2761C63.2939 34.3551 63.9947 33.6184 64.9169 33.6184C65.8391 33.6184 66.5768 34.3183 66.5768 35.2392Z" fill="black"/>
<path d="M76.3087 35.2392C76.3087 36.1601 75.6079 36.8969 74.6857 36.8969C73.7635 36.8969 73.0258 36.197 73.0258 35.2761C73.0258 34.3551 73.7266 33.6184 74.6488 33.6184C75.571 33.6184 76.3087 34.3183 76.3087 35.2392Z" fill="black"/>
<path d="M78.76 39.6194C78.76 40.3621 78.1948 40.9563 77.451 40.9563C76.7072 40.9563 76.1122 40.3918 76.1122 39.6491C76.1122 38.9063 76.6775 38.3121 77.4213 38.3121C78.165 38.3121 78.76 38.8766 78.76 39.6194Z" fill="#8C4A18"/>
<path d="M69.7456 43.8976C68.1093 43.8976 66.6218 42.8577 66.0863 41.3128C65.9376 40.9266 65.9971 40.4809 66.2648 40.1541C66.5028 39.8273 66.8896 39.6193 67.3061 39.6193H72.2149C72.6315 39.6193 73.0182 39.8273 73.2562 40.1541C73.4942 40.4809 73.5537 40.9266 73.4347 41.3128C72.8695 42.8577 71.4117 43.8976 69.7456 43.8976Z" fill="white"/>
<path d="M69.7456 43.8976C68.1093 43.8976 66.6218 42.8577 66.0863 41.3128C65.9376 40.9266 65.9971 40.4809 66.2648 40.1541C66.5028 39.8273 66.8896 39.6193 67.3061 39.6193H72.2149C72.6315 39.6193 73.0182 39.8273 73.2562 40.1541C73.4942 40.4809 73.5537 40.9266 73.4347 41.3128C72.8695 42.8577 71.4117 43.8976 69.7456 43.8976Z" stroke="black" stroke-width="0.855404" stroke-miterlimit="10" stroke-linecap="round" stroke-linejoin="round"/>
<path d="M77.2429 32.6078C76.8264 31.8947 76.0826 31.3897 75.2794 31.2114C74.4166 31.0034 73.4943 31.152 72.7208 31.6571L72.7803 31.7165L72.7208 31.6571C72.6911 31.6868 72.6613 31.6868 72.6316 31.7165C72.5423 31.8056 72.4828 31.9542 72.4531 32.073C72.4531 32.2215 72.5126 32.3404 72.6018 32.4592C72.6911 32.5484 72.8398 32.6078 72.9588 32.6375C73.1076 32.6375 73.2266 32.5781 73.3456 32.4889C73.8216 32.0433 74.5059 31.7759 75.1901 31.8353C75.9041 31.865 76.6181 32.1918 77.0942 32.7563C77.1239 32.786 77.1239 32.786 77.1537 32.786C77.1834 32.786 77.1834 32.786 77.2132 32.7563C77.2429 32.6969 77.2727 32.6375 77.2429 32.6078Z" fill="#563822"/>
<path d="M66.3541 31.6573C65.5806 31.1819 64.6286 31.0036 63.7956 31.2116C62.9626 31.3899 62.2485 31.9246 61.832 32.608C61.8023 32.6377 61.832 32.6971 61.8618 32.7268C61.8915 32.7268 61.8915 32.7565 61.9213 32.7565C61.951 32.7565 61.9808 32.7565 61.9808 32.7268C62.4865 32.1623 63.1708 31.8355 63.8848 31.8058C64.5691 31.7761 65.2534 32.0138 65.7294 32.4594C65.8186 32.5486 65.9674 32.608 66.1161 32.608C66.2649 32.608 66.3839 32.5486 66.4731 32.4297C66.5624 32.3406 66.6219 32.192 66.6219 32.0435C66.6219 31.8949 66.5624 31.7761 66.4434 31.687C66.3839 31.687 66.3839 31.687 66.3541 31.6573Z" fill="#563822"/>
<path d="M56.3281 31.2708L57.8751 35.7273L59.1247 26.9035L63.3492 24.1701C63.3492 24.1701 64.9558 26.3984 78.3733 26.9035L81.0509 34.9251C81.0509 34.9251 82.0327 32.8157 82.4492 29.9636C82.5384 29.4585 82.5979 28.9237 82.6277 28.3889C82.6574 27.7056 82.6872 27.0223 82.6277 26.3093C82.5384 25.0317 82.2707 23.7245 81.7054 22.447C79.2063 16.7426 72.4529 13.8905 68.6151 14.6035C64.7773 15.3166 63.9145 16.9506 63.9145 16.9506C63.9145 16.9506 60.5229 16.4753 59.2437 18.1984C58.3214 19.4463 56.6553 21.318 56.2388 25.4774" fill="#563822"/>
<path d="M56.3281 31.2708L57.8751 35.7273L59.1247 26.9034L63.3492 24.1701C63.3492 24.1701 64.9558 26.3984 78.3733 26.9034L81.0509 34.9251C81.0509 34.9251 82.0327 32.8157 82.4492 29.9636C82.5384 29.4585 82.5979 28.9237 82.6277 28.3889C82.6574 27.7056 82.6872 27.0223 82.6277 26.3093C82.5384 25.0317 82.2707 23.7245 81.7054 22.447C79.2063 16.7426 72.4529 13.8905 68.6151 14.6035C64.7773 15.3166 63.9145 16.9506 63.9145 16.9506C63.9145 16.9506 60.5229 16.4753 59.2437 18.1984C58.3214 19.4463 56.6553 21.318 56.2388 25.4774" stroke="black" stroke-width="0.855404" stroke-miterlimit="10" stroke-linecap="round" stroke-linejoin="round"/>
<path d="M77.4807 46.8388L81.4971 52.8402L77.927 53.3156L79.6525 57.1184L69.7456 66.9227L77.4807 46.8388Z" fill="#303030" stroke="black" stroke-width="0.855404" stroke-miterlimit="10" stroke-linecap="round" stroke-linejoin="round"/>
</g>
<path d="M35.8941 59.7532H104.469C105.689 59.7532 106.671 58.7728 106.671 57.5547V12.6927C106.671 11.4746 105.689 10.4941 104.469 10.4941H35.8941C34.6744 10.4941 33.6926 11.4746 33.6926 12.6927V57.5547C33.7223 58.7728 34.7041 59.7532 35.8941 59.7532Z" stroke="black" stroke-width="0.855404" stroke-miterlimit="10" stroke-linecap="round" stroke-linejoin="round"/>
<path d="M35.8941 59.7532H104.469C105.689 59.7532 106.671 58.7728 106.671 57.5547V12.6927C106.671 11.4746 105.689 10.4941 104.469 10.4941H35.8941C34.6744 10.4941 33.6926 11.4746 33.6926 12.6927V57.5547C33.7223 58.7728 34.7041 59.7532 35.8941 59.7532Z" stroke="black" stroke-width="0.855404" stroke-miterlimit="10" stroke-linecap="round" stroke-linejoin="round"/>
<path d="M43.079 73.7336L96.1542 73.7336L96.1542 69.0692L43.079 69.0692L43.079 73.7336Z" fill="#ECEEEE" stroke="black" stroke-width="0.855404" stroke-miterlimit="10" stroke-linecap="round" stroke-linejoin="round"/>
<path d="M35.8941 59.7532H104.469C105.689 59.7532 106.671 58.7728 106.671 57.5547V12.6927C106.671 11.4746 105.689 10.4941 104.469 10.4941H35.8941C34.6744 10.4941 33.6926 11.4746 33.6926 12.6927V57.5547C33.7223 58.7728 34.7041 59.7532 35.8941 59.7532Z" stroke="black" stroke-width="0.855404" stroke-miterlimit="10" stroke-linecap="round"/>
<path opacity="0.42" d="M81.0854 56.3365H59.6352C57.6419 56.3365 56.0353 54.7322 56.0353 52.7416C56.0353 50.7511 57.6419 49.1467 59.6352 49.1467H81.0854C83.0787 49.1467 84.6852 50.7511 84.6852 52.7416C84.6852 54.7322 83.0787 56.3365 81.0854 56.3365Z" fill="black"/>
<path d="M62.3722 53.6329C61.8962 53.6329 61.5094 53.2467 61.5094 52.7713V51.8206C61.5094 51.3452 61.8962 50.959 62.3722 50.959C62.8482 50.959 63.235 51.3452 63.235 51.8206V52.7713C63.235 53.2467 62.8482 53.6329 62.3722 53.6329Z" stroke="white" stroke-width="0.427702" stroke-miterlimit="10"/>
<path d="M61.7475 54.4351H62.997" stroke="white" stroke-width="0.427702" stroke-miterlimit="10" stroke-linecap="round"/>
<path d="M62.3722 53.6626V54.3162" stroke="white" stroke-width="0.427702" stroke-miterlimit="10"/>
<path d="M71.4165 51.88L70.9107 52.1771L70.5834 52.3851V52.1474C70.5834 51.8206 70.3157 51.5235 69.9587 51.5235H68.4116C68.0844 51.5235 67.7869 51.7909 67.7869 52.1474V53.2764C67.7869 53.6032 68.0546 53.9003 68.4116 53.9003H69.9587C70.2859 53.9003 70.5834 53.6329 70.5834 53.2764V53.009L70.9107 53.217L71.4165 53.5141C71.595 53.6032 71.8032 53.4844 71.8032 53.3061V52.7416V52.1771C71.8032 51.9097 71.595 51.7909 71.4165 51.88Z" stroke="white" stroke-width="0.427702" stroke-miterlimit="10"/>
<path d="M77.9319 51.1967H76.5038C75.7898 51.1967 75.1948 51.7909 75.1948 52.5039C75.1948 53.1872 75.7006 53.722 76.3848 53.8111V54.1082C76.3848 54.2568 76.5633 54.3162 76.6823 54.2271L77.0988 53.8111H77.9616C78.6756 53.8111 79.2706 53.2169 79.2706 52.5039C79.2409 51.7909 78.6459 51.1967 77.9319 51.1967Z" stroke="white" stroke-width="0.427702" stroke-miterlimit="10"/>
<path d="M38.1553 16.1687V17.4759" stroke="black" stroke-width="0.855404" stroke-miterlimit="10" stroke-linecap="round"/>
<path d="M39.6428 15.5745V17.476" stroke="black" stroke-width="0.855404" stroke-miterlimit="10" stroke-linecap="round"/>
<path d="M41.1303 15.2774V17.4759" stroke="black" stroke-width="0.855404" stroke-miterlimit="10" stroke-linecap="round"/>
<path d="M99.7092 132.513C102.625 132.513 104.975 130.166 104.975 127.254V97.366H94.4433V127.225C94.4433 130.136 96.8234 132.513 99.7092 132.513Z" fill="#EC3E6C" stroke="black" stroke-width="0.855404" stroke-miterlimit="10"/>
<path d="M118.839 132.513C121.754 132.513 124.105 130.166 124.105 127.254V97.366H113.573V127.225C113.603 130.136 115.953 132.513 118.839 132.513Z" fill="#EC3E6C" stroke="black" stroke-width="0.855404" stroke-miterlimit="10"/>
<path d="M97.0615 105.12H119.969C123.956 105.12 127.05 101.674 126.634 97.7225L124.135 73.9546H92.8964L90.3973 97.7225C89.9808 101.674 93.0749 105.12 97.0615 105.12Z" fill="#EC3E6C" stroke="black" stroke-width="0.855404" stroke-miterlimit="10"/>
<path d="M85.1613 80.3125H131.87V58.1191C131.87 52.8902 128.389 48.3149 123.361 46.9185L108.516 42.7591L93.67 46.9185C88.6422 48.3149 85.1613 52.8902 85.1613 58.1191V80.3125Z" fill="white" stroke="black" stroke-width="0.855404" stroke-miterlimit="10"/>
<path d="M108.337 51.4641H108.694C112.086 51.4641 114.823 48.7308 114.823 45.3439V40.9765C114.823 37.5896 112.086 34.8563 108.694 34.8563H108.337C104.946 34.8563 102.208 37.5896 102.208 40.9765V45.3439C102.208 48.7011 104.946 51.4641 108.337 51.4641Z" fill="#F9E0C2" stroke="black" stroke-width="0.855404" stroke-miterlimit="10" stroke-linecap="round" stroke-linejoin="round"/>
<path d="M122.469 61.5358V80.3125" stroke="black" stroke-width="0.855404" stroke-miterlimit="10" stroke-linecap="round"/>
<path d="M94.5627 61.5358V80.3125" stroke="black" stroke-width="0.855404" stroke-miterlimit="10" stroke-linecap="round"/>
<path d="M85.144 80.3166L94.5452 80.3166L94.5452 68.8485L85.144 68.8485L85.144 80.3166Z" fill="#F9E0C2" stroke="black" stroke-width="0.855404" stroke-miterlimit="10" stroke-linecap="round" stroke-linejoin="round"/>
<path d="M122.469 80.3166L131.87 80.3166L131.87 68.8485L122.469 68.8485L122.469 80.3166Z" fill="#F9E0C2" stroke="black" stroke-width="0.855404" stroke-miterlimit="10" stroke-linecap="round" stroke-linejoin="round"/>
<path d="M94.0569 30.786H92.0338C89.862 30.786 88.1067 29.0332 88.1067 26.8643C88.1067 24.6955 89.862 22.9426 92.0338 22.9426H94.0569" fill="#FBE2C4"/>
<path d="M94.0569 30.786H92.0338C89.862 30.786 88.1067 29.0332 88.1067 26.8643C88.1067 24.6955 89.862 22.9426 92.0338 22.9426H94.0569" stroke="black" stroke-width="0.855404" stroke-miterlimit="10" stroke-linecap="round" stroke-linejoin="round"/>
<path d="M126.663 22.9426H128.686C130.858 22.9426 132.614 24.6955 132.614 26.8643C132.614 29.0332 130.858 30.786 128.686 30.786H126.663" fill="#FBE2C4"/>
<path d="M126.663 22.9426H128.686C130.858 22.9426 132.614 24.6955 132.614 26.8643C132.614 29.0332 130.858 30.786 128.686 30.786H126.663" stroke="black" stroke-width="0.855404" stroke-miterlimit="10" stroke-linecap="round" stroke-linejoin="round"/>
<path d="M106.79 70.4192C109.2 70.3003 110.777 71.4293 111.282 68.7257C113.186 58.2084 129.668 43.8882 129.639 29.2412C129.639 23.7448 129.787 18.1297 127.11 13.3166C124.432 8.47392 119.732 4.55221 114.228 3.95801C111.907 3.72033 109.378 4.16598 107.623 5.65148C107.355 5.56235 107.088 5.47322 106.731 5.4138C104.142 4.96815 101.465 4.87902 98.9953 6.06742C95.8715 7.55291 93.6402 10.821 92.4205 14.3565C91.2007 17.892 90.8437 21.6948 90.6057 25.468C89.6834 39.1049 89.6834 52.8012 89.7131 66.4677C89.7131 67.2699 89.7131 68.1315 90.0702 68.8742C90.7247 70.2409 92.2419 70.6568 93.6105 70.8351C95.9013 71.1619 98.2516 71.251 100.572 71.1322L106.79 70.4192Z" fill="#563822" stroke="black" stroke-width="0.855404" stroke-miterlimit="10" stroke-linecap="round" stroke-linejoin="round"/>
<path d="M92.3013 133.998C92.3013 135.603 90.9923 136.91 89.3857 136.91C87.7792 136.91 86.4702 135.603 86.4702 133.998C86.4702 132.394 87.7792 131.087 89.3857 131.087C91.022 131.087 92.3013 132.394 92.3013 133.998Z" fill="#697172"/>
<path d="M111.669 136.613C111.669 138.217 110.36 139.524 108.753 139.524C107.147 139.524 105.838 138.217 105.838 136.613C105.838 135.009 107.147 133.701 108.753 133.701C110.36 133.701 111.669 135.009 111.669 136.613Z" fill="#697172"/>
<path d="M131.037 133.998C131.037 135.603 129.728 136.91 128.121 136.91C126.515 136.91 125.206 135.603 125.206 133.998C125.206 132.394 126.515 131.087 128.121 131.087C129.728 131.087 131.037 132.394 131.037 133.998Z" fill="#697172"/>
<path d="M131.453 95.2269H86.619C83.8522 95.2269 81.6209 92.9987 81.6209 90.2357V81.3227C81.6209 78.5597 83.8522 76.3314 86.619 76.3314H131.453C134.22 76.3314 136.451 78.5597 136.451 81.3227V90.2357C136.451 92.9987 134.22 95.2269 131.453 95.2269Z" fill="#FFE46B" stroke="black" stroke-width="0.855404" stroke-miterlimit="10"/>
<path d="M104.261 105.15V93.4443C104.261 90.8001 106.403 88.6907 109.021 88.6907C111.669 88.6907 113.781 90.8299 113.781 93.4443V105.15" fill="#FFE46B"/>
<path d="M104.261 105.15V93.4443C104.261 90.8001 106.403 88.6907 109.021 88.6907C111.669 88.6907 113.781 90.8299 113.781 93.4443V105.15" stroke="black" stroke-width="0.855404" stroke-miterlimit="10"/>
<path d="M128.181 133.998C124.521 127.046 117.203 122.293 108.783 122.293C100.364 122.293 93.0749 127.046 89.3858 133.998" stroke="black" stroke-width="0.855404" stroke-miterlimit="10" stroke-linecap="round" stroke-linejoin="round"/>
<path d="M108.783 106.16V133.998" stroke="black" stroke-width="0.855404" stroke-miterlimit="10" stroke-linecap="round" stroke-linejoin="round"/>
<path d="M92.3013 133.998C92.3013 135.603 90.9923 136.91 89.3857 136.91C87.7792 136.91 86.4702 135.603 86.4702 133.998C86.4702 132.394 87.7792 131.087 89.3857 131.087C91.022 131.087 92.3013 132.394 92.3013 133.998Z" stroke="black" stroke-width="0.855404" stroke-miterlimit="10" stroke-linecap="round" stroke-linejoin="round"/>
<path d="M111.669 136.613C111.669 138.217 110.36 139.524 108.753 139.524C107.147 139.524 105.838 138.217 105.838 136.613C105.838 135.009 107.147 133.701 108.753 133.701C110.36 133.701 111.669 135.009 111.669 136.613Z" stroke="black" stroke-width="0.855404" stroke-miterlimit="10" stroke-linecap="round" stroke-linejoin="round"/>
<path d="M131.037 133.998C131.037 135.603 129.728 136.91 128.121 136.91C126.515 136.91 125.206 135.603 125.206 133.998C125.206 132.394 126.515 131.087 128.121 131.087C129.728 131.087 131.037 132.394 131.037 133.998Z" stroke="black" stroke-width="0.855404" stroke-miterlimit="10" stroke-linecap="round" stroke-linejoin="round"/>
<path d="M131.453 95.2269H86.619C83.8522 95.2269 81.6209 92.9987 81.6209 90.2357V81.3227C81.6209 78.5597 83.8522 76.3314 86.619 76.3314H131.453C134.22 76.3314 136.451 78.5597 136.451 81.3227V90.2357C136.451 92.9987 134.22 95.2269 131.453 95.2269Z" stroke="black" stroke-width="0.855404" stroke-miterlimit="10" stroke-linecap="round" stroke-linejoin="round"/>
<path d="M104.261 105.15V93.4443C104.261 90.8001 106.403 88.6907 109.021 88.6907C111.669 88.6907 113.781 90.8299 113.781 93.4443V105.15" stroke="black" stroke-width="0.855404" stroke-miterlimit="10" stroke-linecap="round" stroke-linejoin="round"/>
<path d="M132.852 113.231H85.2207C83.3762 113.231 81.8589 111.716 81.8589 109.874V108.864C81.8589 107.022 83.3762 105.507 85.2207 105.507H132.852C134.696 105.507 136.213 107.022 136.213 108.864V109.874C136.243 111.716 134.726 113.231 132.852 113.231Z" fill="#F9D558"/>
<path d="M132.852 113.231H85.2207C83.3762 113.231 81.8589 111.716 81.8589 109.874V108.864C81.8589 107.022 83.3762 105.507 85.2207 105.507H132.852C134.696 105.507 136.213 107.022 136.213 108.864V109.874C136.243 111.716 134.726 113.231 132.852 113.231Z" fill="#FFE46B" stroke="black" stroke-width="0.855404" stroke-miterlimit="10"/>
<path d="M57.3431 134.374L57.3565 135.245C57.3833 136.331 58.295 137.203 59.381 137.19C60.467 137.163 61.3385 136.251 61.3251 135.165L61.3117 133.248" fill="white"/>
<path d="M57.3431 134.374L57.3565 135.245C57.3833 136.331 58.295 137.203 59.381 137.19C60.467 137.163 61.3385 136.251 61.3251 135.165L61.3117 133.248" stroke="black" stroke-width="0.855404" stroke-miterlimit="10" stroke-linecap="round" stroke-linejoin="round"/>
<path d="M34.9395 134.374L34.9529 135.245C34.9797 136.331 35.8914 137.203 36.9774 137.19C38.0634 137.163 38.9349 136.251 38.9215 135.165L38.9081 133.248" fill="white"/>
<path d="M34.9395 134.374L34.9529 135.245C34.9797 136.331 35.8914 137.203 36.9774 137.19C38.0634 137.163 38.9349 136.251 38.9215 135.165L38.9081 133.248" stroke="black" stroke-width="0.855404" stroke-miterlimit="10" stroke-linecap="round" stroke-linejoin="round"/>
<path d="M57.2091 106.956C58.6839 105.481 61.0838 105.481 62.5586 106.956L67.3853 111.783C68.8601 113.258 68.8601 115.657 67.3853 117.132C65.9105 118.607 63.5106 118.607 62.0358 117.132L57.9867 113.083" fill="white"/>
<path d="M57.2091 106.956C58.6839 105.481 61.0838 105.481 62.5586 106.956L67.3853 111.783C68.8601 113.258 68.8601 115.657 67.3853 117.132C65.9105 118.607 63.5106 118.607 62.0358 117.132L57.9867 113.083" stroke="black" stroke-width="0.855404" stroke-miterlimit="10" stroke-linecap="round" stroke-linejoin="round"/>
<path d="M19.0653 118.969C14.708 119.224 10.9673 115.912 10.6992 111.555C10.6992 111.555 14.6946 117.306 21.9881 115.818" fill="white"/>
<path d="M19.0653 118.969C14.708 119.224 10.9673 115.912 10.6992 111.555C10.6992 111.555 14.6946 117.306 21.9881 115.818" stroke="black" stroke-width="0.855404" stroke-miterlimit="10" stroke-linecap="round" stroke-linejoin="round"/>
<path d="M55.8415 135.152H31.2257C23.4361 135.152 17.1346 128.837 17.1346 121.061C17.1346 113.271 23.4495 106.969 31.2257 106.969H55.8415C63.6178 106.969 69.9326 113.284 69.9326 121.061C69.9326 128.85 63.6178 135.152 55.8415 135.152Z" fill="white" stroke="black" stroke-width="0.855404" stroke-miterlimit="10" stroke-linecap="round" stroke-linejoin="round"/>
<mask id="mask1_33_562" style="mask-type:alpha" maskUnits="userSpaceOnUse" x="15" y="106" width="55" height="30">
<path d="M55.037 135.42H30.4212C22.6316 135.42 16.3301 129.105 16.3301 121.329C16.3301 113.539 22.645 107.238 30.4212 107.238H55.037C62.8133 107.238 69.1281 113.552 69.1281 121.329C69.1281 129.118 62.8133 135.42 55.037 135.42Z" fill="white" stroke="black" stroke-width="0.855404" stroke-miterlimit="10" stroke-linecap="round" stroke-linejoin="round"/>
</mask>
<g mask="url(#mask1_33_562)">
<path d="M32.4994 118.071C27.1681 118.071 22.8461 113.749 22.8461 108.417C22.8461 103.086 27.1681 98.7642 32.4994 98.7642C37.8308 98.7642 42.1527 103.086 42.1527 108.417C42.1527 113.749 37.8308 118.071 32.4994 118.071Z" fill="#FFAC00"/>
</g>
<path d="M55.8415 135.152H31.2257C23.4361 135.152 17.1346 128.837 17.1346 121.061C17.1346 113.271 23.4495 106.969 31.2257 106.969H55.8415C63.6178 106.969 69.9326 113.284 69.9326 121.061C69.9326 128.85 63.6178 135.152 55.8415 135.152Z" stroke="black" stroke-width="0.855404" stroke-miterlimit="10" stroke-linecap="round" stroke-linejoin="round"/>
<path d="M51.0417 134.508L51.0551 135.379C51.0819 136.465 51.9936 137.337 53.0796 137.324C54.1656 137.297 55.0371 136.385 55.0237 135.299L55.0103 134.428" fill="white"/>
<path d="M51.0417 134.508L51.0551 135.379C51.0819 136.465 51.9936 137.337 53.0796 137.324C54.1656 137.297 55.0371 136.385 55.0237 135.299L55.0103 134.428" stroke="black" stroke-width="0.855404" stroke-miterlimit="10" stroke-linecap="round" stroke-linejoin="round"/>
<path d="M28.6381 133.985L28.6515 135.38C28.6783 136.466 29.59 137.337 30.676 137.324C31.762 137.297 32.6335 136.385 32.6201 135.299L32.6067 134.428" fill="white"/>
<path d="M28.6381 133.985L28.6515 135.38C28.6783 136.466 29.59 137.337 30.676 137.324C31.762 137.297 32.6335 136.385 32.6201 135.299L32.6067 134.428" stroke="black" stroke-width="0.855404" stroke-miterlimit="10" stroke-linecap="round" stroke-linejoin="round"/>
<path d="M53.9511 123.501C51.0633 123.501 48.7222 121.16 48.7222 118.272C48.7222 115.384 51.0633 113.043 53.9511 113.043C56.8389 113.043 59.1799 115.384 59.1799 118.272C59.1799 121.16 56.8389 123.501 53.9511 123.501Z" fill="#FFAC00"/>
<path d="M59.2201 120.095C60.1318 119.653 61.2044 119.626 62.1295 120.028C62.6926 120.269 62.8267 121.02 62.3977 121.463L61.3653 122.535C61.0167 122.897 60.4536 122.911 60.0916 122.562L59.019 121.53C58.5632 121.114 58.657 120.363 59.2201 120.095Z" fill="black"/>
<path d="M60.695 121.436L60.6816 124.989" stroke="black" stroke-width="0.855404" stroke-miterlimit="10" stroke-linecap="round"/>
<path d="M50.653 107.224C49.1781 105.749 46.7782 105.749 45.3034 107.224L40.4768 112.051C39.002 113.526 39.002 115.926 40.4768 117.4C41.9516 118.875 44.3515 118.875 45.8263 117.4L49.1245 114.102" fill="white"/>
<path d="M50.653 107.224C49.1781 105.749 46.7782 105.749 45.3034 107.224L40.4768 112.051C39.002 113.526 39.002 115.926 40.4768 117.4C41.9516 118.875 44.3515 118.875 45.8263 117.4L49.1245 114.102" stroke="black" stroke-width="0.855404" stroke-miterlimit="10" stroke-linecap="round" stroke-linejoin="round"/>
<path d="M55.8282 119.948C54.947 119.948 54.2327 119.233 54.2327 118.352C54.2327 117.471 54.947 116.757 55.8282 116.757C56.7093 116.757 57.4236 117.471 57.4236 118.352C57.4236 119.233 56.7093 119.948 55.8282 119.948Z" fill="black"/>
<path d="M65.3473 119.948C64.4661 119.948 63.7518 119.233 63.7518 118.352C63.7518 117.471 64.4661 116.757 65.3473 116.757C66.2284 116.757 66.9427 117.471 66.9427 118.352C66.9427 119.233 66.2284 119.948 65.3473 119.948Z" fill="black"/>
<path d="M62.8937 124.131C61.6737 125.351 59.7028 125.351 58.4827 124.131" stroke="black" stroke-width="0.855404" stroke-miterlimit="10" stroke-linecap="round"/>
<g clip-path="url(#clip0_33_562)">
<path d="M179.533 60.3425C180.174 56.7926 176.325 54.2263 173.288 56.151C171.235 57.4341 169.268 59.3588 167.557 61.7967C164.007 66.8435 162.51 72.9597 163.28 77.7072C167.215 77.921 171.877 75.1837 175.427 70.1369C177.523 67.0574 178.934 63.6358 179.533 60.3425Z" fill="#00E6C2" stroke="black" stroke-width="0.855404" stroke-miterlimit="10" stroke-linecap="round" stroke-linejoin="round"/>
<path d="M148.268 48.0674C145.231 46.9554 142.152 49.6499 142.836 52.8149C143.734 56.7926 145.702 60.7702 148.482 63.8497C152.374 68.1267 156.865 69.4953 160.286 67.9556C160.201 62.5665 157.977 56.4932 154.085 52.2162C152.203 50.1632 150.235 48.7945 148.268 48.0674Z" fill="#00E6C2" stroke="black" stroke-width="0.855404" stroke-miterlimit="10" stroke-linecap="round" stroke-linejoin="round"/>
<path d="M148.268 67.5706C145.231 66.4586 142.152 69.1531 142.836 72.3181C143.734 76.2957 145.702 80.2734 148.482 83.3528C152.374 87.6298 156.865 88.9985 160.286 87.4588C160.201 82.0697 157.977 75.9963 154.085 71.7193C152.203 69.6664 150.235 68.2977 148.268 67.5706Z" fill="#00E6C2" stroke="black" stroke-width="0.855404" stroke-miterlimit="10" stroke-linecap="round" stroke-linejoin="round"/>
<path d="M185.478 81.8559C183.297 80.8722 180.602 80.3162 177.608 80.2734C172.091 80.1878 166.83 81.8559 163.28 84.5504L162.425 60.3852C165.333 57.4341 167.301 52.3017 167.301 46.4422C167.301 43.1061 166.659 40.0266 165.59 37.4177C164.178 33.996 159.388 33.996 157.977 37.4177C156.907 40.0266 156.266 43.1061 156.266 46.4422C156.266 51.7457 157.848 56.4932 160.329 59.5298V112.052H164.178L163.323 87.2877C165.761 89.7256 169.952 91.3509 175.042 91.4364C178.763 91.5219 182.398 90.7521 185.435 89.4262C188.771 87.972 188.771 83.3101 185.478 81.8559Z" fill="#00E6C2" stroke="black" stroke-width="0.855404" stroke-miterlimit="10" stroke-linecap="round" stroke-linejoin="round"/>
<path d="M178.592 107.604V117.655C178.592 124.284 173.16 129.758 166.488 129.758H157.806C151.176 129.758 145.702 124.327 145.702 117.655V107.604H178.592Z" fill="white" stroke="black" stroke-width="0.855404" stroke-miterlimit="10"/>
<path opacity="0.24" d="M172.818 107.604V117.655C172.818 124.284 167.386 129.758 160.714 129.758H166.488C173.117 129.758 178.592 124.327 178.592 117.655V107.604H172.818Z" fill="#6F9CB2"/>
</g>
<defs>
<clipPath id="clip0_33_562">
<rect width="46.0635" height="97.9437" fill="white" transform="translate(142.323 34.4237)"/>
</clipPath>
</defs>
</svg>
